<svg width="661" height="326" viewBox="0 0 661 326" fill="none" xmlns="http://www.w3.org/2000/svg">
<path d="M87.164 73.4664C82.8109 73.4664 78.8131 72.4448 75.1706 70.4014C71.5282 68.3581 68.6409 65.5375 66.5088 61.9395C64.3766 58.297 63.3106 54.1882 63.3106 49.613C63.3106 45.0822 64.3766 41.0177 66.5088 37.4197C68.6409 33.7773 71.5282 30.9344 75.1706 28.8911C78.8131 26.8478 82.8109 25.8262 87.164 25.8262C91.5616 25.8262 95.5593 26.8478 99.1573 28.8911C102.8 30.9344 105.665 33.7773 107.753 37.4197C109.885 41.0177 110.951 45.0822 110.951 49.613C110.951 54.1882 109.885 58.297 107.753 61.9395C105.665 65.5375 102.8 68.3581 99.1573 70.4014C95.5149 72.4448 91.5171 73.4664 87.164 73.4664ZM87.164 65.1377C89.9624 65.1377 92.4277 64.5158 94.5599 63.2721C96.692 61.9839 98.3578 60.1627 99.5571 57.8084C100.756 55.4542 101.356 52.7224 101.356 49.613C101.356 46.5036 100.756 43.794 99.5571 41.4841C98.3578 39.1299 96.692 37.3309 94.5599 36.0871C92.4277 34.8434 89.9624 34.2215 87.164 34.2215C84.3655 34.2215 81.878 34.8434 79.7015 36.0871C77.5693 37.3309 75.9036 39.1299 74.7042 41.4841C73.5049 43.794 72.9052 46.5036 72.9052 49.613C72.9052 52.7224 73.5049 55.4542 74.7042 57.8084C75.9036 60.1627 77.5693 61.9839 79.7015 63.2721C81.878 64.5158 84.3655 65.1377 87.164 65.1377ZM127.219 23.694V73H117.891V23.694H127.219ZM134.036 54.4103C134.036 50.679 134.769 47.3698 136.235 44.4825C137.745 41.5952 139.767 39.3742 142.299 37.8195C144.875 36.2648 147.74 35.4875 150.894 35.4875C153.648 35.4875 156.046 36.0427 158.09 37.1532C160.177 38.2637 161.843 39.6629 163.087 41.3509V36.0871H172.482V73H163.087V67.603C161.888 69.3354 160.222 70.779 158.09 71.9339C156.002 73.0444 153.581 73.5997 150.827 73.5997C147.718 73.5997 144.875 72.8001 142.299 71.201C139.767 69.6019 137.745 67.3587 136.235 64.4714C134.769 61.5397 134.036 58.186 134.036 54.4103ZM163.087 54.5436C163.087 52.2782 162.643 50.3459 161.754 48.7468C160.866 47.1033 159.667 45.8595 158.156 45.0155C156.646 44.1271 155.025 43.6829 153.292 43.6829C151.56 43.6829 149.961 44.1049 148.495 44.9489C147.029 45.7929 145.83 47.0366 144.897 48.6802C144.009 50.2793 143.564 52.1893 143.564 54.4103C143.564 56.6313 144.009 58.5858 144.897 60.2737C145.83 61.9173 147.029 63.1832 148.495 64.0716C150.005 64.96 151.604 65.4042 153.292 65.4042C155.025 65.4042 156.646 64.9822 158.156 64.1382C159.667 63.2499 160.866 62.0061 161.754 60.407C162.643 58.7635 163.087 56.809 163.087 54.5436ZM161.821 26.4925L146.496 33.4886V26.8256L161.821 18.8967V26.4925ZM191.787 63.2054L183.991 81.9284H177.994L182.325 63.2054H191.787ZM248.701 53.744C248.701 55.0766 248.612 56.2759 248.434 57.342H221.449C221.671 60.0072 222.604 62.0949 224.248 63.6052C225.891 65.1155 227.912 65.8706 230.311 65.8706C233.776 65.8706 236.241 64.3826 237.707 61.4064H247.768C246.702 64.96 244.659 67.8917 241.638 70.2016C238.618 72.467 234.909 73.5997 230.511 73.5997C226.957 73.5997 223.759 72.8223 220.916 71.2676C218.118 69.6685 215.919 67.4253 214.32 64.538C212.765 61.6507 211.988 58.3193 211.988 54.5436C211.988 50.7235 212.765 47.3698 214.32 44.4825C215.875 41.5952 218.051 39.3742 220.85 37.8195C223.648 36.2648 226.869 35.4875 230.511 35.4875C234.02 35.4875 237.152 36.2426 239.906 37.7529C242.704 39.2632 244.859 41.4175 246.369 44.216C247.924 46.97 248.701 50.146 248.701 53.744ZM239.04 51.0788C238.995 48.6802 238.129 46.7701 236.441 45.3487C234.753 43.8828 232.688 43.1499 230.245 43.1499C227.935 43.1499 225.98 43.8606 224.381 45.282C222.826 46.6591 221.871 48.5913 221.516 51.0788H239.04ZM290.357 36.0871V73H280.962V68.3359C279.763 69.935 278.186 71.201 276.232 72.1338C274.321 73.0222 272.234 73.4664 269.968 73.4664C267.081 73.4664 264.527 72.8667 262.306 71.6674C260.085 70.4237 258.33 68.6246 257.042 66.2704C255.798 63.8717 255.177 61.0289 255.177 57.7418V36.0871H264.505V56.4092C264.505 59.3409 265.238 61.6063 266.703 63.2054C268.169 64.7601 270.168 65.5375 272.7 65.5375C275.276 65.5375 277.298 64.7601 278.763 63.2054C280.229 61.6063 280.962 59.3409 280.962 56.4092V36.0871H290.357ZM329.563 73.5997C326.542 73.5997 323.833 73.0666 321.434 72.0006C319.035 70.8901 317.125 69.402 315.704 67.5364C314.327 65.6707 313.572 63.6052 313.438 61.3398H322.833C323.011 62.7612 323.699 63.9384 324.899 64.8712C326.143 65.804 327.675 66.2704 329.496 66.2704C331.273 66.2704 332.65 65.915 333.627 65.2043C334.649 64.4936 335.16 63.583 335.16 62.4725C335.16 61.2732 334.538 60.3848 333.294 59.8073C332.095 59.1854 330.163 58.5191 327.497 57.8084C324.743 57.1421 322.478 56.4536 320.701 55.7429C318.969 55.0322 317.458 53.9439 316.17 52.478C314.927 51.0122 314.305 49.0355 314.305 46.548C314.305 44.5047 314.882 42.6391 316.037 40.9511C317.236 39.2632 318.924 37.9306 321.101 36.9533C323.322 35.9761 325.92 35.4875 328.897 35.4875C333.294 35.4875 336.803 36.598 339.424 38.819C342.045 40.9955 343.488 43.9494 343.755 47.6807H334.827C334.693 46.2149 334.071 45.0599 332.961 44.216C331.895 43.3276 330.451 42.8834 328.63 42.8834C326.942 42.8834 325.632 43.1943 324.699 43.8162C323.811 44.4381 323.366 45.3043 323.366 46.4147C323.366 47.6585 323.988 48.6135 325.232 49.2798C326.476 49.9017 328.408 50.5458 331.029 51.2121C333.694 51.8784 335.893 52.5669 337.625 53.2776C339.357 53.9883 340.845 55.0988 342.089 56.6091C343.377 58.0749 344.044 60.0294 344.088 62.4725C344.088 64.6047 343.488 66.5147 342.289 68.2027C341.134 69.8906 339.446 71.2232 337.225 72.2004C335.049 73.1333 332.495 73.5997 329.563 73.5997ZM368.136 73.5997C364.583 73.5997 361.384 72.8223 358.542 71.2676C355.699 69.6685 353.456 67.4253 351.812 64.538C350.213 61.6507 349.413 58.3193 349.413 54.5436C349.413 50.7679 350.235 47.4364 351.879 44.5491C353.567 41.6618 355.854 39.4408 358.741 37.8861C361.629 36.287 364.849 35.4875 368.403 35.4875C371.956 35.4875 375.177 36.287 378.064 37.8861C380.951 39.4408 383.217 41.6618 384.86 44.5491C386.548 47.4364 387.392 50.7679 387.392 54.5436C387.392 58.3193 386.526 61.6507 384.794 64.538C383.106 67.4253 380.796 69.6685 377.864 71.2676C374.977 72.8223 371.734 73.5997 368.136 73.5997ZM368.136 65.4708C369.824 65.4708 371.401 65.0711 372.867 64.2715C374.377 63.4275 375.577 62.1838 376.465 60.5402C377.353 58.8967 377.798 56.8978 377.798 54.5436C377.798 51.0344 376.865 48.347 374.999 46.4814C373.178 44.5713 370.935 43.6163 368.27 43.6163C365.604 43.6163 363.361 44.5713 361.54 46.4814C359.763 48.347 358.875 51.0344 358.875 54.5436C358.875 58.0527 359.741 60.7623 361.473 62.6724C363.25 64.538 365.471 65.4708 368.136 65.4708ZM429.082 36.0871V73H419.687V68.3359C418.488 69.935 416.911 71.201 414.957 72.1338C413.047 73.0222 410.959 73.4664 408.693 73.4664C405.806 73.4664 403.252 72.8667 401.031 71.6674C398.81 70.4237 397.055 68.6246 395.767 66.2704C394.524 63.8717 393.902 61.0289 393.902 57.7418V36.0871H403.23V56.4092C403.23 59.3409 403.963 61.6063 405.429 63.2054C406.894 64.7601 408.893 65.5375 411.425 65.5375C414.002 65.5375 416.023 64.7601 417.489 63.2054C418.954 61.6063 419.687 59.3409 419.687 56.4092V36.0871H429.082Z" fill="black"/>
<path d="M167.762 127.468V107.039H67.6486V201.741H92.0005V172.113H159.645V151.549H92.0005V127.468H167.762ZM223.721 184.289C208.298 184.289 196.122 180.095 193.552 167.378H279.595C279.595 131.12 255.378 120.703 225.074 120.703C192.74 120.703 169.876 132.609 169.876 161.966C169.876 191.189 193.416 203.094 223.721 203.094C253.214 203.094 272.966 193.488 278.242 173.195H255.243C249.426 181.312 239.685 184.289 223.721 184.289ZM224.939 138.291C239.55 138.291 250.914 141.402 254.837 152.631H194.363C198.016 141.402 209.11 138.291 224.939 138.291ZM288.417 93.5101V201.741H311.552V93.5101H288.417ZM322.372 93.5101V113.668H345.506V93.5101H322.372ZM322.372 122.056V201.741H345.506V122.056H322.372ZM420.028 120.703C402.846 120.703 389.047 125.438 380.388 134.367V122.056H357.119V235.563H380.388V189.43C389.047 198.494 402.846 203.094 420.028 203.094C445.733 203.094 467.514 192.406 467.514 161.966C467.514 131.526 445.733 120.703 420.028 120.703ZM412.317 183.748C391.617 183.748 380.388 177.66 380.388 161.966C380.388 146.137 391.617 140.049 412.317 140.049C433.016 140.049 444.38 146.137 444.38 161.966C444.38 177.66 433.016 183.748 412.317 183.748ZM528.781 184.289C513.358 184.289 501.182 180.095 498.612 167.378H584.655C584.655 131.12 560.439 120.703 530.134 120.703C497.8 120.703 474.936 132.609 474.936 161.966C474.936 191.189 498.476 203.094 528.781 203.094C558.274 203.094 578.026 193.488 583.302 173.195H560.303C554.486 181.312 544.745 184.289 528.781 184.289ZM529.999 138.291C544.61 138.291 555.974 141.402 559.897 152.631H499.423C503.076 141.402 514.17 138.291 529.999 138.291Z" fill="#4434FD"/>
<path d="M73.39 271.043C76.5984 271.043 79.3705 271.648 81.7065 272.858C84.0706 274.04 85.8718 275.743 87.1101 277.966C88.3766 280.19 89.0098 282.807 89.0098 285.819C89.0098 288.83 88.3766 291.447 87.1101 293.671C85.8718 295.866 84.0706 297.555 81.7065 298.737C79.3705 299.891 76.5984 300.468 73.39 300.468H64.2291V271.043H73.39ZM73.39 297.301C77.1894 297.301 80.0882 296.302 82.0864 294.304C84.0846 292.278 85.0838 289.449 85.0838 285.819C85.0838 282.16 84.0706 279.303 82.0442 277.249C80.046 275.194 77.1613 274.167 73.39 274.167H68.0708V297.301H73.39ZM115.185 288.014C115.185 288.746 115.143 289.52 115.058 290.336H96.5678C96.7085 292.615 97.4825 294.403 98.8896 295.697C100.325 296.964 102.056 297.597 104.082 297.597C105.743 297.597 107.122 297.217 108.219 296.457C109.345 295.669 110.133 294.628 110.583 293.333H114.721C114.101 295.556 112.863 297.372 111.006 298.779C109.148 300.158 106.84 300.847 104.082 300.847C101.887 300.847 99.9169 300.355 98.172 299.37C96.4552 298.385 95.1043 296.992 94.1193 295.191C93.1342 293.361 92.6417 291.25 92.6417 288.858C92.6417 286.466 93.1202 284.369 94.077 282.568C95.0339 280.767 96.3708 279.388 98.0875 278.431C99.8325 277.446 101.831 276.953 104.082 276.953C106.277 276.953 108.219 277.432 109.908 278.389C111.597 279.346 112.891 280.668 113.792 282.357C114.721 284.017 115.185 285.903 115.185 288.014ZM111.217 287.212C111.217 285.748 110.893 284.496 110.246 283.455C109.598 282.385 108.712 281.583 107.586 281.048C106.488 280.485 105.264 280.204 103.913 280.204C101.971 280.204 100.311 280.823 98.9319 282.061C97.581 283.3 96.807 285.017 96.61 287.212H111.217ZM128.446 300.847C126.673 300.847 125.082 300.552 123.675 299.961C122.268 299.342 121.156 298.497 120.34 297.428C119.524 296.33 119.074 295.078 118.989 293.671H122.958C123.07 294.825 123.605 295.768 124.562 296.499C125.547 297.231 126.827 297.597 128.403 297.597C129.867 297.597 131.021 297.273 131.865 296.626C132.709 295.979 133.132 295.162 133.132 294.177C133.132 293.164 132.681 292.418 131.781 291.94C130.88 291.433 129.487 290.941 127.601 290.462C125.885 290.012 124.477 289.562 123.38 289.111C122.31 288.633 121.382 287.943 120.594 287.043C119.834 286.114 119.454 284.904 119.454 283.412C119.454 282.23 119.806 281.147 120.509 280.162C121.213 279.177 122.212 278.403 123.506 277.84C124.801 277.249 126.279 276.953 127.939 276.953C130.5 276.953 132.569 277.601 134.145 278.895C135.721 280.19 136.565 281.963 136.678 284.214H132.836C132.752 283.004 132.259 282.033 131.359 281.302C130.486 280.57 129.304 280.204 127.812 280.204C126.433 280.204 125.336 280.499 124.52 281.09C123.703 281.681 123.295 282.455 123.295 283.412C123.295 284.172 123.535 284.805 124.013 285.312C124.52 285.79 125.139 286.185 125.871 286.494C126.63 286.776 127.672 287.099 128.994 287.465C130.655 287.915 132.006 288.366 133.047 288.816C134.089 289.238 134.975 289.885 135.707 290.758C136.467 291.63 136.861 292.77 136.889 294.177C136.889 295.444 136.537 296.584 135.833 297.597C135.13 298.61 134.131 299.412 132.836 300.003C131.57 300.566 130.106 300.847 128.446 300.847ZM163.42 288.014C163.42 288.746 163.378 289.52 163.293 290.336H144.803C144.943 292.615 145.717 294.403 147.125 295.697C148.56 296.964 150.291 297.597 152.317 297.597C153.978 297.597 155.357 297.217 156.454 296.457C157.58 295.669 158.368 294.628 158.818 293.333H162.955C162.336 295.556 161.098 297.372 159.24 298.779C157.383 300.158 155.075 300.847 152.317 300.847C150.122 300.847 148.152 300.355 146.407 299.37C144.69 298.385 143.339 296.992 142.354 295.191C141.369 293.361 140.877 291.25 140.877 288.858C140.877 286.466 141.355 284.369 142.312 282.568C143.269 280.767 144.606 279.388 146.322 278.431C148.067 277.446 150.066 276.953 152.317 276.953C154.512 276.953 156.454 277.432 158.143 278.389C159.831 279.346 161.126 280.668 162.027 282.357C162.955 284.017 163.42 285.903 163.42 288.014ZM159.452 287.212C159.452 285.748 159.128 284.496 158.481 283.455C157.833 282.385 156.947 281.583 155.821 281.048C154.723 280.485 153.499 280.204 152.148 280.204C150.206 280.204 148.546 280.823 147.167 282.061C145.816 283.3 145.042 285.017 144.845 287.212H159.452ZM179.762 276.911C182.577 276.911 184.856 277.769 186.601 279.486C188.346 281.175 189.219 283.623 189.219 286.832V300.468H185.419V287.381C185.419 285.073 184.842 283.314 183.688 282.104C182.534 280.865 180.958 280.246 178.96 280.246C176.934 280.246 175.316 280.879 174.105 282.146C172.923 283.412 172.332 285.256 172.332 287.676V300.468H168.491V277.333H172.332V280.626C173.092 279.444 174.119 278.529 175.414 277.882C176.737 277.235 178.186 276.911 179.762 276.911ZM204.106 296.921L211.283 277.333H215.378L206.301 300.468H201.826L192.75 277.333H196.887L204.106 296.921ZM229.248 300.847C227.08 300.847 225.11 300.355 223.337 299.37C221.592 298.385 220.213 296.992 219.2 295.191C218.215 293.361 217.723 291.25 217.723 288.858C217.723 286.494 218.229 284.411 219.242 282.61C220.284 280.781 221.691 279.388 223.464 278.431C225.237 277.446 227.221 276.953 229.416 276.953C231.612 276.953 233.596 277.446 235.369 278.431C237.142 279.388 238.535 280.767 239.548 282.568C240.589 284.369 241.11 286.466 241.11 288.858C241.11 291.25 240.575 293.361 239.506 295.191C238.465 296.992 237.043 298.385 235.242 299.37C233.441 300.355 231.443 300.847 229.248 300.847ZM229.248 297.47C230.627 297.47 231.921 297.147 233.131 296.499C234.342 295.852 235.313 294.881 236.044 293.586C236.804 292.292 237.184 290.716 237.184 288.858C237.184 287.001 236.818 285.425 236.086 284.13C235.355 282.835 234.398 281.878 233.216 281.259C232.034 280.612 230.753 280.288 229.374 280.288C227.967 280.288 226.672 280.612 225.49 281.259C224.336 281.878 223.408 282.835 222.704 284.13C222 285.425 221.649 287.001 221.649 288.858C221.649 290.744 221.986 292.334 222.662 293.629C223.365 294.923 224.294 295.894 225.448 296.541C226.602 297.161 227.868 297.47 229.248 297.47ZM250.003 269.228V300.468H246.161V269.228H250.003ZM265.162 296.921L272.339 277.333H276.434L267.358 300.468H262.883L253.806 277.333H257.943L265.162 296.921ZM301.322 288.014C301.322 288.746 301.28 289.52 301.195 290.336H282.705C282.846 292.615 283.62 294.403 285.027 295.697C286.462 296.964 288.193 297.597 290.219 297.597C291.88 297.597 293.259 297.217 294.357 296.457C295.482 295.669 296.27 294.628 296.721 293.333H300.858C300.239 295.556 299 297.372 297.143 298.779C295.285 300.158 292.977 300.847 290.219 300.847C288.024 300.847 286.054 300.355 284.309 299.37C282.592 298.385 281.241 296.992 280.256 295.191C279.271 293.361 278.779 291.25 278.779 288.858C278.779 286.466 279.257 284.369 280.214 282.568C281.171 280.767 282.508 279.388 284.225 278.431C285.97 277.446 287.968 276.953 290.219 276.953C292.415 276.953 294.357 277.432 296.045 278.389C297.734 279.346 299.028 280.668 299.929 282.357C300.858 284.017 301.322 285.903 301.322 288.014ZM297.354 287.212C297.354 285.748 297.03 284.496 296.383 283.455C295.736 282.385 294.849 281.583 293.723 281.048C292.626 280.485 291.401 280.204 290.05 280.204C288.109 280.204 286.448 280.823 285.069 282.061C283.718 283.3 282.944 285.017 282.747 287.212H297.354ZM304.958 288.816C304.958 286.452 305.436 284.383 306.393 282.61C307.35 280.809 308.659 279.416 310.319 278.431C312.008 277.446 313.893 276.953 315.976 276.953C317.777 276.953 319.452 277.375 321 278.22C322.548 279.036 323.73 280.119 324.546 281.47V269.228H328.43V300.468H324.546V296.119C323.786 297.498 322.66 298.638 321.169 299.539C319.677 300.411 317.932 300.847 315.934 300.847C313.879 300.847 312.008 300.341 310.319 299.328C308.659 298.315 307.35 296.893 306.393 295.064C305.436 293.235 304.958 291.152 304.958 288.816ZM324.546 288.858C324.546 287.113 324.194 285.593 323.49 284.299C322.787 283.004 321.83 282.019 320.62 281.344C319.438 280.64 318.129 280.288 316.694 280.288C315.258 280.288 313.95 280.626 312.768 281.302C311.586 281.977 310.643 282.962 309.939 284.257C309.236 285.551 308.884 287.071 308.884 288.816C308.884 290.589 309.236 292.137 309.939 293.46C310.643 294.754 311.586 295.753 312.768 296.457C313.95 297.132 315.258 297.47 316.694 297.47C318.129 297.47 319.438 297.132 320.62 296.457C321.83 295.753 322.787 294.754 323.49 293.46C324.194 292.137 324.546 290.603 324.546 288.858ZM345.011 300.847C342.844 300.847 340.874 300.355 339.101 299.37C337.356 298.385 335.977 296.992 334.964 295.191C333.979 293.361 333.486 291.25 333.486 288.858C333.486 286.494 333.993 284.411 335.006 282.61C336.047 280.781 337.455 279.388 339.228 278.431C341.001 277.446 342.985 276.953 345.18 276.953C347.375 276.953 349.359 277.446 351.133 278.431C352.906 279.388 354.299 280.767 355.312 282.568C356.353 284.369 356.874 286.466 356.874 288.858C356.874 291.25 356.339 293.361 355.27 295.191C354.228 296.992 352.807 298.385 351.006 299.37C349.205 300.355 347.206 300.847 345.011 300.847ZM345.011 297.47C346.39 297.47 347.685 297.147 348.895 296.499C350.105 295.852 351.076 294.881 351.808 293.586C352.568 292.292 352.948 290.716 352.948 288.858C352.948 287.001 352.582 285.425 351.85 284.13C351.118 282.835 350.162 281.878 348.98 281.259C347.797 280.612 346.517 280.288 345.138 280.288C343.731 280.288 342.436 280.612 341.254 281.259C340.1 281.878 339.171 282.835 338.468 284.13C337.764 285.425 337.412 287.001 337.412 288.858C337.412 290.744 337.75 292.334 338.426 293.629C339.129 294.923 340.058 295.894 341.212 296.541C342.366 297.161 343.632 297.47 345.011 297.47ZM365.767 281.09C366.442 279.768 367.399 278.74 368.637 278.009C369.904 277.277 371.438 276.911 373.239 276.911V280.879H372.226C367.92 280.879 365.767 283.215 365.767 287.887V300.468H361.925V277.333H365.767V281.09ZM398.342 280.499H393.488V300.468H389.646V280.499H386.649V277.333H389.646V275.687C389.646 273.098 390.307 271.212 391.63 270.03C392.981 268.82 395.134 268.215 398.089 268.215V271.423C396.4 271.423 395.204 271.761 394.501 272.436C393.825 273.084 393.488 274.167 393.488 275.687V277.333H398.342V280.499ZM406.663 281.09C407.339 279.768 408.295 278.74 409.534 278.009C410.8 277.277 412.334 276.911 414.135 276.911V280.879H413.122C408.816 280.879 406.663 283.215 406.663 287.887V300.468H402.822V277.333H406.663V281.09ZM428.66 300.847C426.492 300.847 424.522 300.355 422.749 299.37C421.004 298.385 419.625 296.992 418.612 295.191C417.627 293.361 417.135 291.25 417.135 288.858C417.135 286.494 417.641 284.411 418.654 282.61C419.696 280.781 421.103 279.388 422.876 278.431C424.649 277.446 426.633 276.953 428.828 276.953C431.024 276.953 433.008 277.446 434.781 278.431C436.554 279.388 437.947 280.767 438.96 282.568C440.002 284.369 440.522 286.466 440.522 288.858C440.522 291.25 439.987 293.361 438.918 295.191C437.877 296.992 436.455 298.385 434.654 299.37C432.853 300.355 430.855 300.847 428.66 300.847ZM428.66 297.47C430.039 297.47 431.333 297.147 432.543 296.499C433.754 295.852 434.725 294.881 435.456 293.586C436.216 292.292 436.596 290.716 436.596 288.858C436.596 287.001 436.23 285.425 435.499 284.13C434.767 282.835 433.81 281.878 432.628 281.259C431.446 280.612 430.165 280.288 428.786 280.288C427.379 280.288 426.084 280.612 424.902 281.259C423.748 281.878 422.82 282.835 422.116 284.13C421.413 285.425 421.061 287.001 421.061 288.858C421.061 290.744 421.398 292.334 422.074 293.629C422.777 294.923 423.706 295.894 424.86 296.541C426.014 297.161 427.281 297.47 428.66 297.47ZM456.845 276.911C459.659 276.911 461.939 277.769 463.684 279.486C465.429 281.175 466.301 283.623 466.301 286.832V300.468H462.502V287.381C462.502 285.073 461.925 283.314 460.771 282.104C459.617 280.865 458.041 280.246 456.043 280.246C454.016 280.246 452.398 280.879 451.188 282.146C450.006 283.412 449.415 285.256 449.415 287.676V300.468H445.573V277.333H449.415V280.626C450.175 279.444 451.202 278.529 452.497 277.882C453.819 277.235 455.269 276.911 456.845 276.911ZM477.263 280.499V294.135C477.263 295.261 477.502 296.063 477.98 296.541C478.459 296.992 479.289 297.217 480.471 297.217H483.299V300.468H479.838C477.699 300.468 476.095 299.975 475.025 298.99C473.956 298.005 473.421 296.387 473.421 294.135V280.499H470.424V277.333H473.421V271.507H477.263V277.333H483.299V280.499H477.263ZM503.996 283.37V286.621H487.152V283.37H503.996ZM532.314 288.014C532.314 288.746 532.271 289.52 532.187 290.336H513.696C513.837 292.615 514.611 294.403 516.018 295.697C517.454 296.964 519.184 297.597 521.211 297.597C522.871 297.597 524.25 297.217 525.348 296.457C526.474 295.669 527.262 294.628 527.712 293.333H531.849C531.23 295.556 529.992 297.372 528.134 298.779C526.277 300.158 523.969 300.847 521.211 300.847C519.016 300.847 517.046 300.355 515.301 299.37C513.584 298.385 512.233 296.992 511.248 295.191C510.263 293.361 509.77 291.25 509.77 288.858C509.77 286.466 510.249 284.369 511.206 282.568C512.163 280.767 513.499 279.388 515.216 278.431C516.961 277.446 518.959 276.953 521.211 276.953C523.406 276.953 525.348 277.432 527.037 278.389C528.725 279.346 530.02 280.668 530.92 282.357C531.849 284.017 532.314 285.903 532.314 288.014ZM528.345 287.212C528.345 285.748 528.022 284.496 527.374 283.455C526.727 282.385 525.841 281.583 524.715 281.048C523.617 280.485 522.393 280.204 521.042 280.204C519.1 280.204 517.44 280.823 516.061 282.061C514.71 283.3 513.936 285.017 513.739 287.212H528.345ZM548.656 276.911C551.47 276.911 553.75 277.769 555.495 279.486C557.24 281.175 558.112 283.623 558.112 286.832V300.468H554.313V287.381C554.313 285.073 553.736 283.314 552.582 282.104C551.428 280.865 549.852 280.246 547.854 280.246C545.828 280.246 544.209 280.879 542.999 282.146C541.817 283.412 541.226 285.256 541.226 287.676V300.468H537.384V277.333H541.226V280.626C541.986 279.444 543.013 278.529 544.308 277.882C545.631 277.235 547.08 276.911 548.656 276.911ZM562.952 288.816C562.952 286.452 563.431 284.383 564.388 282.61C565.345 280.809 566.653 279.416 568.314 278.431C570.002 277.446 571.888 276.953 573.971 276.953C575.772 276.953 577.447 277.375 578.994 278.22C580.542 279.036 581.724 280.119 582.541 281.47V269.228H586.424V300.468H582.541V296.119C581.781 297.498 580.655 298.638 579.163 299.539C577.672 300.411 575.927 300.847 573.929 300.847C571.874 300.847 570.002 300.341 568.314 299.328C566.653 298.315 565.345 296.893 564.388 295.064C563.431 293.235 562.952 291.152 562.952 288.816ZM582.541 288.858C582.541 287.113 582.189 285.593 581.485 284.299C580.782 283.004 579.825 282.019 578.615 281.344C577.432 280.64 576.124 280.288 574.688 280.288C573.253 280.288 571.944 280.626 570.762 281.302C569.58 281.977 568.637 282.962 567.934 284.257C567.23 285.551 566.878 287.071 566.878 288.816C566.878 290.589 567.23 292.137 567.934 293.46C568.637 294.754 569.58 295.753 570.762 296.457C571.944 297.132 573.253 297.47 574.688 297.47C576.124 297.47 577.432 297.132 578.615 296.457C579.825 295.753 580.782 294.754 581.485 293.46C582.189 292.137 582.541 290.603 582.541 288.858Z" fill="#625B5B"/>
</svg>
